<svg xmlns="http://www.w3.org/2000/svg" viewBox="0 0 24 24" width="24" height="24" fill="#5B8FB9">
  <path d="M12 2a2 2 0 012 2v2.07a6 6 0 012.77 1.6l1.46-1.46A2 2 0 0120.5 8L19 9.5a6 6 0 011.6 2.77H22a2 2 0 012 2v1a2 2 0 01-2 2h-1.07a6 6 0 01-1.6 2.77l1.46 1.46a2 2 0 01-1.06 3.5 2 2 0 01-1.46-.59L16.5 20a6 6 0 01-2.77 1.6V24a2 2 0 01-2 2 2 2 0 01-2-2v-2.07a6 6 0 01-2.77-1.6L5.5 21.46A2 2 0 014.44 18a2 2 0 01.59-1.46L7 16.5a6 6 0 01-1.6-2.77H4a2 2 0 01-2-2v-1a2 2 0 012-2h1.07a6 6 0 011.6-2.77L4.21 5.5A2 2 0 015.27 2a2 2 0 012.92.59L8.5 5a6 6 0 012.77-1.6V4a2 2 0 012-2z"/>
</svg>